<svg width="1200" height="630" viewBox="0 0 1200 630" fill="none" xmlns="http://www.w3.org/2000/svg">
  <defs>
    <linearGradient id="bg" x1="0" y1="0" x2="1200" y2="630" gradientUnits="userSpaceOnUse">
      <stop stop-color="#0B0B0F"/>
      <stop offset="0.45" stop-color="#13131A"/>
      <stop offset="1" stop-color="#1F150E"/>
    </linearGradient>
    <linearGradient id="accent" x1="0" y1="0" x2="400" y2="400" gradientUnits="userSpaceOnUse">
      <stop stop-color="#FF8A3D"/>
      <stop offset="1" stop-color="#FFB067"/>
    </linearGradient>
    <linearGradient id="card" x1="0" y1="0" x2="380" y2="250" gradientUnits="userSpaceOnUse">
      <stop stop-color="#1C1C24"/>
      <stop offset="1" stop-color="#101018"/>
    </linearGradient>
  </defs>
  <rect width="1200" height="630" fill="url(#bg)"/>
  <circle cx="1030" cy="120" r="180" fill="#1B1220" opacity="0.8"/>
  <circle cx="1050" cy="120" r="120" fill="#2A1A12" opacity="0.6"/>
  <circle cx="160" cy="520" r="140" fill="#151521" opacity="0.7"/>
  <circle cx="170" cy="520" r="90" fill="#2B1A12" opacity="0.5"/>

  <rect x="140" y="140" width="420" height="280" rx="24" fill="url(#card)" stroke="#2A2A36" stroke-width="2"/>
  <rect x="180" y="190" width="140" height="10" rx="5" fill="#3A3A48"/>
  <rect x="180" y="215" width="200" height="10" rx="5" fill="#3A3A48"/>
  <rect x="180" y="240" width="170" height="10" rx="5" fill="#3A3A48"/>
  <rect x="180" y="275" width="280" height="14" rx="7" fill="#2F2F3B"/>
  <rect x="180" y="305" width="250" height="14" rx="7" fill="#2F2F3B"/>
  <rect x="180" y="335" width="210" height="14" rx="7" fill="#2F2F3B"/>

  <rect x="660" y="170" width="420" height="260" rx="28" fill="#14141D" stroke="#2B2B3A" stroke-width="2"/>
  <rect x="700" y="210" width="340" height="180" rx="20" fill="#0C0C12"/>
  <circle cx="870" cy="300" r="70" fill="url(#accent)"/>
  <polygon points="850,265 920,300 850,335" fill="#0B0B0F"/>

  <rect x="640" y="470" width="260" height="16" rx="8" fill="#2B2B3A"/>
  <rect x="640" y="500" width="200" height="16" rx="8" fill="#2B2B3A"/>

  <rect x="240" y="470" width="260" height="16" rx="8" fill="#2B2B3A"/>
  <rect x="240" y="500" width="200" height="16" rx="8" fill="#2B2B3A"/>
</svg>
